<svg xmlns="http://www.w3.org/2000/svg" width="120" height="120" viewBox="0 0 120 120">
    <g fill="#C6CBDA" fill-rule="nonzero">
        <path d="M22.5 85.001h10v5h-10zM22.5 94.999h15v5h-15z"/>
        <path d="M117.75 106.908L90 79.154V17.5a7.5 7.5 0 0 0-7.5-7.5H32.25C31.092 4.294 26.048 0 20 0 13.953 0 8.91 4.294 7.751 10h-.25A7.5 7.5 0 0 0 0 17.5v95a7.5 7.5 0 0 0 7.5 7.5h75a7.5 7.5 0 0 0 7.5-7.5v-11.655l16.907 16.905a7.666 7.666 0 0 0 10.849 0 7.667 7.667 0 0 0-.007-10.842zM20 5a7.502 7.502 0 0 1 7.072 5H12.929A7.501 7.501 0 0 1 20 5zm65 107.5a2.5 2.5 0 0 1-2.5 2.5h-75a2.5 2.5 0 0 1-2.5-2.5v-95A2.5 2.5 0 0 1 7.5 15h20v27.5a2.5 2.5 0 0 1-5 0V20h-5v22.5a7.5 7.5 0 0 0 15 0V15h50a2.5 2.5 0 0 1 2.5 2.5v56.654l-7.5-7.501V22.5A2.5 2.5 0 0 0 75 20H37.5v5h35v37.198l-13.882-6.925a2.5 2.5 0 0 0-2.614.233L56 55.5l-7.095 5.315-4-14a2.5 2.5 0 0 0-4.172-1.082L33.965 52.5H15a2.5 2.5 0 0 0-2.5 2.5v52.5A2.5 2.5 0 0 0 15 110h60a2.5 2.5 0 0 0 2.5-2.5V88.346l7.5 7.5V112.5zM65.496 67.903l-2.41-4.816 4.817 2.409-2.407 2.407zM72.5 83.346V105h-55V57.5H35a2.5 2.5 0 0 0 1.766-.728l4.5-4.5 3.83 13.413A2.5 2.5 0 0 0 49 67l7.598-5.7 5.974 11.95.006-.003c.117.232.27.45.464.643l9.457 9.456zm-4.155-11.223l3.778-3.778 33.025 33.025-3.777 3.778-33.026-33.025zm45.876 42.097a2.67 2.67 0 0 1-3.778 0l-5.537-5.537 3.778-3.777 5.536 5.536a2.67 2.67 0 0 1 0 3.778z"/>
    </g>
</svg>
